<svg width="47" height="54" viewBox="0 0 47 54" fill="none" xmlns="http://www.w3.org/2000/svg">
<path d="M1.95117 7.65625H12.0234C13.9922 7.65625 15.7031 7.94922 17.1562 8.53516C18.6094 9.12109 19.7285 9.98828 20.5137 11.1367C21.3105 12.2852 21.709 13.7031 21.709 15.3906C21.709 16.8555 21.4805 18.0801 21.0234 19.0645C20.5664 20.0488 19.9277 20.8633 19.1074 21.5078C18.2988 22.1406 17.3555 22.6621 16.2773 23.0723L14.2559 24.2148H5.80078L5.76562 19.4512H12.0234C12.8086 19.4512 13.459 19.3105 13.9746 19.0293C14.4902 18.748 14.877 18.3496 15.1348 17.834C15.4043 17.3066 15.5391 16.6797 15.5391 15.9531C15.5391 15.2148 15.4043 14.582 15.1348 14.0547C14.8652 13.5273 14.4668 13.123 13.9395 12.8418C13.4238 12.5605 12.7852 12.4199 12.0234 12.4199H8.12109V33.25H1.95117V7.65625ZM15.9609 33.25L10.3008 21.9297L16.8398 21.8945L22.5703 32.9863V33.25H15.9609ZM38.6191 26.4473C38.6191 26.0488 38.5605 25.6914 38.4434 25.375C38.3262 25.0469 38.1094 24.7422 37.793 24.4609C37.4766 24.1797 37.0195 23.8984 36.4219 23.6172C35.8359 23.3242 35.0625 23.0195 34.1016 22.7031C32.9766 22.3281 31.8926 21.9062 30.8496 21.4375C29.8066 20.957 28.875 20.4004 28.0547 19.7676C27.2344 19.123 26.584 18.373 26.1035 17.5176C25.623 16.6504 25.3828 15.6426 25.3828 14.4941C25.3828 13.3926 25.6289 12.4023 26.1211 11.5234C26.6133 10.6328 27.2988 9.87695 28.1777 9.25586C29.0684 8.62305 30.1113 8.14258 31.3066 7.81445C32.502 7.47461 33.8086 7.30469 35.2266 7.30469C37.1016 7.30469 38.7539 7.63281 40.1836 8.28906C41.625 8.93359 42.75 9.85352 43.5586 11.0488C44.3789 12.2324 44.7891 13.6328 44.7891 15.25H38.6543C38.6543 14.6055 38.5195 14.0371 38.25 13.5449C37.9922 13.0527 37.5996 12.666 37.0723 12.3848C36.5449 12.1035 35.8828 11.9629 35.0859 11.9629C34.3125 11.9629 33.6621 12.0801 33.1348 12.3145C32.6074 12.5488 32.209 12.8652 31.9395 13.2637C31.6699 13.6504 31.5352 14.0781 31.5352 14.5469C31.5352 14.9336 31.6406 15.2852 31.8516 15.6016C32.0742 15.9062 32.3848 16.1934 32.7832 16.4629C33.1934 16.7324 33.6855 16.9902 34.2598 17.2363C34.8457 17.4824 35.502 17.7227 36.2285 17.957C37.5879 18.3906 38.7949 18.877 39.8496 19.416C40.916 19.9434 41.8125 20.5469 42.5391 21.2266C43.2773 21.8945 43.834 22.6562 44.209 23.5117C44.5957 24.3672 44.7891 25.334 44.7891 26.4121C44.7891 27.5605 44.5664 28.5801 44.1211 29.4707C43.6758 30.3613 43.0371 31.1172 42.2051 31.7383C41.373 32.3477 40.377 32.8105 39.2168 33.127C38.0566 33.4434 36.7617 33.6016 35.332 33.6016C34.0195 33.6016 32.7246 33.4375 31.4473 33.1094C30.1816 32.7695 29.0332 32.2539 28.002 31.5625C26.9707 30.8594 26.1445 29.9629 25.5234 28.873C24.9141 27.7715 24.6094 26.4648 24.6094 24.9531H30.7969C30.7969 25.7031 30.8965 26.3359 31.0957 26.8516C31.2949 27.3672 31.5879 27.7832 31.9746 28.0996C32.3613 28.4043 32.8359 28.627 33.3984 28.7676C33.9609 28.8965 34.6055 28.9609 35.332 28.9609C36.1172 28.9609 36.75 28.8496 37.2305 28.627C37.7109 28.3926 38.0625 28.0879 38.2852 27.7129C38.5078 27.3262 38.6191 26.9043 38.6191 26.4473Z" fill="white"/>
<path d="M4.96387 36.125V49.625H1.99316V36.125H4.96387ZM13.1714 47.2344V43.3145C13.1714 43.0449 13.1334 42.8135 13.0572 42.6201C12.981 42.4268 12.8609 42.2773 12.6968 42.1719C12.5328 42.0605 12.313 42.0049 12.0377 42.0049C11.815 42.0049 11.6246 42.043 11.4664 42.1191C11.3082 42.1953 11.188 42.3096 11.106 42.4619C11.024 42.6143 10.983 42.8076 10.983 43.042H8.02105C8.02105 42.6025 8.11773 42.1953 8.31109 41.8203C8.51031 41.4395 8.79156 41.1084 9.15484 40.8271C9.52398 40.5459 9.96344 40.3291 10.4732 40.1768C10.9888 40.0186 11.563 39.9395 12.1959 39.9395C12.9517 39.9395 13.6255 40.0654 14.2173 40.3174C14.815 40.5693 15.2867 40.9473 15.6324 41.4512C15.9781 41.9492 16.1509 42.5762 16.1509 43.332V47.2256C16.1509 47.8467 16.1861 48.3184 16.2564 48.6406C16.3267 48.957 16.4263 49.2354 16.5552 49.4756V49.625H13.5845C13.4439 49.332 13.3384 48.9746 13.2681 48.5527C13.2037 48.125 13.1714 47.6855 13.1714 47.2344ZM13.5318 43.8154L13.5494 45.3975H12.2398C11.9644 45.3975 11.73 45.4355 11.5367 45.5117C11.3492 45.5879 11.1968 45.6934 11.0796 45.8281C10.9683 45.957 10.8863 46.1035 10.8336 46.2676C10.7867 46.4316 10.7632 46.6045 10.7632 46.7861C10.7632 46.9619 10.8043 47.1201 10.8863 47.2607C10.9742 47.3955 11.0914 47.501 11.2379 47.5771C11.3843 47.6533 11.5484 47.6914 11.73 47.6914C12.0582 47.6914 12.3365 47.6299 12.565 47.5068C12.7994 47.3779 12.9781 47.2227 13.1011 47.041C13.2242 46.8594 13.2857 46.6895 13.2857 46.5312L13.9361 47.7441C13.8189 47.9785 13.6841 48.2158 13.5318 48.4561C13.3853 48.6963 13.2007 48.9189 12.9781 49.124C12.7613 49.3232 12.4947 49.4873 12.1783 49.6162C11.8619 49.7393 11.4781 49.8008 11.0269 49.8008C10.441 49.8008 9.90191 49.6807 9.40973 49.4404C8.9234 49.2002 8.53375 48.8662 8.24078 48.4385C7.94781 48.0049 7.80133 47.5068 7.80133 46.9443C7.80133 46.4521 7.88922 46.0127 8.065 45.626C8.24664 45.2393 8.5191 44.9111 8.88238 44.6416C9.24566 44.3721 9.70855 44.167 10.2711 44.0264C10.8336 43.8857 11.4957 43.8154 12.2574 43.8154H13.5318ZM22.1437 42.1455V49.625H19.1818V40.1152H21.9591L22.1437 42.1455ZM21.7921 44.5449L21.0978 44.5625C21.0978 43.8359 21.1857 43.1885 21.3614 42.6201C21.5372 42.0459 21.7863 41.5596 22.1085 41.1611C22.4308 40.7627 22.8146 40.4609 23.2599 40.2559C23.7111 40.0449 24.212 39.9395 24.7628 39.9395C25.2023 39.9395 25.6036 40.0039 25.9669 40.1328C26.3361 40.2617 26.6525 40.4697 26.9161 40.7568C27.1857 41.0439 27.3907 41.4248 27.5314 41.8994C27.6779 42.3682 27.7511 42.9482 27.7511 43.6396V49.625H24.7716V43.6309C24.7716 43.25 24.7189 42.96 24.6134 42.7607C24.5079 42.5557 24.3556 42.415 24.1564 42.3389C23.9571 42.2627 23.714 42.2246 23.4269 42.2246C23.1222 42.2246 22.8644 42.2832 22.6534 42.4004C22.4425 42.5176 22.2726 42.6816 22.1437 42.8926C22.0206 43.0977 21.9298 43.3408 21.8712 43.6221C21.8185 43.9033 21.7921 44.2109 21.7921 44.5449ZM36.8112 40.1152H39.5007V49.2559C39.5007 50.1348 39.2985 50.8789 38.8942 51.4883C38.4899 52.1035 37.9245 52.5693 37.1979 52.8857C36.4772 53.208 35.6335 53.3691 34.6667 53.3691C34.2389 53.3691 33.8024 53.3135 33.3571 53.2021C32.9118 53.0967 32.4958 52.9385 32.1091 52.7275C31.7223 52.5166 31.3971 52.2559 31.1335 51.9453L32.3727 50.2051C32.613 50.4746 32.9147 50.7031 33.278 50.8906C33.6413 51.084 34.069 51.1807 34.5612 51.1807C34.9889 51.1807 35.3464 51.1045 35.6335 50.9521C35.9264 50.7998 36.1491 50.5771 36.3014 50.2842C36.4538 49.9971 36.53 49.6484 36.53 49.2383V42.3652L36.8112 40.1152ZM30.4919 44.9844V44.7998C30.4919 44.0791 30.5798 43.4229 30.7555 42.8311C30.9372 42.2334 31.195 41.7207 31.529 41.293C31.8688 40.8594 32.279 40.5254 32.7595 40.291C33.2399 40.0566 33.7819 39.9395 34.3854 39.9395C35.0358 39.9395 35.569 40.0654 35.985 40.3174C36.4069 40.5635 36.7438 40.9092 36.9958 41.3545C37.2536 41.7998 37.4528 42.3213 37.5934 42.9189C37.7399 43.5107 37.863 44.1494 37.9626 44.835V45.0547C37.863 45.6992 37.7253 46.3086 37.5495 46.8828C37.3796 47.4512 37.1569 47.9551 36.8815 48.3945C36.6061 48.834 36.2604 49.1797 35.8444 49.4316C35.4343 49.6777 34.9421 49.8008 34.3679 49.8008C33.7702 49.8008 33.2311 49.6807 32.7507 49.4404C32.2761 49.2002 31.8688 48.8633 31.529 48.4297C31.195 47.9961 30.9372 47.4863 30.7555 46.9004C30.5798 46.3145 30.4919 45.6758 30.4919 44.9844ZM33.4538 44.7998V44.9844C33.4538 45.3418 33.486 45.6729 33.5505 45.9775C33.6208 46.2822 33.7262 46.5518 33.8669 46.7861C34.0075 47.0146 34.1804 47.1934 34.3854 47.3223C34.5964 47.4512 34.8425 47.5156 35.1237 47.5156C35.5514 47.5156 35.8971 47.4248 36.1608 47.2432C36.4245 47.0615 36.6149 46.8037 36.7321 46.4697C36.8493 46.1357 36.8991 45.7432 36.8815 45.292V44.5977C36.8932 44.2109 36.8669 43.8711 36.8024 43.5781C36.738 43.2793 36.6354 43.0303 36.4948 42.8311C36.36 42.6318 36.1784 42.4824 35.9499 42.3828C35.7272 42.2773 35.4577 42.2246 35.1413 42.2246C34.8659 42.2246 34.6227 42.2891 34.4118 42.418C34.2009 42.5469 34.0251 42.7285 33.8845 42.9629C33.7438 43.1914 33.6354 43.4639 33.5593 43.7803C33.4889 44.0908 33.4538 44.4307 33.4538 44.7998Z" fill="white"/>
</svg>
