<svg width="32" height="33" viewBox="0 0 32 33" fill="none" xmlns="http://www.w3.org/2000/svg">
<g clip-path="url(#clip0_19_65)">
<path fill-rule="evenodd" clip-rule="evenodd" d="M16 0.6875C7.16 0.6875 0 7.8475 0 16.6875C0 23.7675 4.58 29.7475 10.94 31.8675C11.74 32.0075 12.04 31.5275 12.04 31.1075C12.04 30.7275 12.02 29.4675 12.02 28.1275C8 28.8675 6.96 27.1475 6.64 26.2475C6.46 25.7875 5.68 24.3675 5 23.9875C4.44 23.6875 3.64 22.9475 4.98 22.9275C6.24 22.9075 7.14 24.0875 7.44 24.5675C8.88 26.9875 11.18 26.3075 12.1 25.8875C12.24 24.8475 12.66 24.1475 13.12 23.7475C9.56 23.3475 5.84 21.9675 5.84 15.8475C5.84 14.1075 6.46 12.6675 7.48 11.5475C7.32 11.1475 6.76 9.5075 7.64 7.3075C7.64 7.3075 8.98 6.8875 12.04 8.9475C13.32 8.5875 14.68 8.4075 16.04 8.4075C17.4 8.4075 18.76 8.5875 20.04 8.9475C23.1 6.8675 24.44 7.3075 24.44 7.3075C25.32 9.5075 24.76 11.1475 24.6 11.5475C25.62 12.6675 26.24 14.0875 26.24 15.8475C26.24 21.9875 22.5 23.3475 18.94 23.7475C19.52 24.2475 20.02 25.2075 20.02 26.7075C20.02 28.8475 20 30.5675 20 31.1075C20 31.5275 20.3 32.0275 21.1 31.8675C24.2763 30.7952 27.0363 28.7539 28.9917 26.0307C30.947 23.3076 31.9991 20.0399 32 16.6875C32 7.8475 24.84 0.6875 16 0.6875Z" fill="white"/>
</g>
<defs>
<clipPath id="clip0_19_65">
<rect width="32" height="32" fill="white" transform="translate(0 0.6875)"/>
</clipPath>
</defs>
</svg>
